<?xml version="1.0" encoding="utf-8"?>
<!-- Generator: Adobe Illustrator 21.1.0, SVG Export Plug-In . SVG Version: 6.00 Build 0)  -->
<svg version="1.1" id="圖層_1" xmlns="http://www.w3.org/2000/svg" xmlns:xlink="http://www.w3.org/1999/xlink" x="0px" y="0px"
	 viewBox="0 0 600 112.8" style="enable-background:new 0 0 600 112.8;" xml:space="preserve">
<style type="text/css">
	.st0{fill:#003366;}
	.st1{fill:#996600;}
</style>
<g>
	<g>
		<g>
			<path class="st0" d="M119.1,20.7v14.5H116v-1.6H99.5v1.6h-3.1V20.9c-0.5,0.2-1.6,0.6-2.8,1l-1.6-3c4-0.9,7.6-2.7,10.6-5.3H92.3
				v-2.8H106V8.2c-5,0.1-8.6,0.2-10.8,0.2l-1.1-3.1c1.2,0,2.8,0.1,4.7,0.1c8.9,0,15.6-0.5,20.2-1.6l1.4,2.7c-3,0.6-6.8,1.1-11.3,1.6
				v2.8h14.1v2.8h-10.8c2.6,2.5,6.2,4.1,11,5.1l-1.4,3c-0.4-0.2-0.9-0.4-1.4-0.5C120,21.1,119.5,20.9,119.1,20.7z M98.4,20h7.7v-6.1
				C104,16.6,101.5,18.6,98.4,20z M116,22.8H99.5v2.6H116V22.8z M99.5,30.8H116v-2.9H99.5V30.8z M109.1,13.8V20h8.3
				C113.9,18.6,111.2,16.6,109.1,13.8z"/>
			<path class="st0" d="M141.8,24.8c-0.9,3.6-2.3,6.9-4.2,9.9l-2.7-2.7c2-2.8,3.3-5.8,4-8.9L141.8,24.8z M139.8,19.4
				c-1.8-1.6-3.3-2.7-4.7-3.6l2-2.5c1.6,0.8,3.2,2,5,3.2L139.8,19.4z M143,7.4h4.4V3.9h3v3.5h6.1V3.9h3v3.5h5.5V10h-5.5v3.4h6v2.8
				h-6.4c0.9,1.8,3.1,3.6,6.7,5.4l-1.4,3c-2.1-1.2-3.7-2.5-5.1-3.6v6.9h-10.8v2.2c0,0.8,0.4,1.1,1.1,1.1h9.9c0.9,0,1.4-0.3,1.7-1
				c0.2-0.7,0.3-2,0.5-3.7l3.2,1.1c-0.3,3.1-0.8,5-1.4,5.6c-0.6,0.6-1.8,0.9-3.4,0.9h-10.9c-1.4,0-2.4-0.3-3-0.8
				c-0.5-0.5-0.8-1.6-0.8-3.1v-7.4c-0.5,0.5-1.6,1.1-3.1,2.1l-1.9-2.8c3.7-1.7,6-3.5,7-5.7h-5.4v-2.8h5.1v-3.3h-4.4V8.5l-2.1,2.6
				c-1.9-1.7-3.5-3-5-3.9l2.2-2.5c1.9,1.2,3.5,2.3,4.8,3.3V7.4H143z M148.7,22v3.3h7.7V22H148.7z M151.2,16.3c-0.5,1.1-1.1,2.2-2,3
				h8.5c-0.7-0.8-1.4-1.9-2.1-3H151.2z M150.4,10.2v3.3h6.1v-3.3H150.4z"/>
			<path class="st0" d="M183.8,8.6c-1.1,0.2-2.9,0.4-5.2,0.5l-0.7-2.8c5-0.2,9.3-1,12.8-2.4l1.1,2.7c-1.6,0.5-3.3,1-5.1,1.3v4.8h5.1
				v2.9h-5.1v0.3c2.5,2.3,4.3,4.1,5.7,5.6l-1.9,2.9c-0.6-0.9-1.3-1.8-2-2.6c-0.6-0.7-1.1-1.4-1.8-2.3v15.5l-3.1,0.1V21.4
				c-0.8,2.2-2.4,4.7-4.6,7.4l-1.9-3c2.8-3.2,4.9-6.6,6.3-10.3h-6.1v-2.9h6.2L183.8,8.6L183.8,8.6z M191.6,27.7v-3.1l11.2-1.7V3.7
				h3.1v18.8l3-0.5v3l-3,0.5v9.6h-3.1V26L191.6,27.7z M198.8,20.9c-2.3-1.9-4.3-3.4-6.1-4.4l2-2.3c1.7,0.8,3.7,2.3,6.2,4.1
				L198.8,20.9z M199.4,12.8c-2.5-2-4.4-3.4-6-4.3l2-2.2c1.4,0.8,3.5,2.2,6.1,4L199.4,12.8z"/>
			<path class="st0" d="M232.8,13.6h-3.9v5.9c1.8-0.6,3.1-1,3.9-1.4v3.3c-0.7,0.4-2,0.9-3.9,1.6V31c0,1.6-0.2,2.6-0.7,3.1
				s-1.6,0.8-3.2,0.8h-2.7l-0.7-3.4l2.9,0.1c0.7,0,1.1-0.4,1.1-1.1v-6.7c-1.9,0.5-3.4,0.8-4.4,1.1l-0.8-3.6c2-0.2,3.7-0.6,5.3-1
				v-6.7h-5v-3h5V3.7h3.3v6.8h3.9V8.4h7.1V3.6h3.3v4.8h7.9v3h-7.9v4.4h6.7v2.8c-0.3,1.2-1,2.8-2.2,4.8c-1.1,2-2.4,3.4-3.6,4.6
				c2.3,1.9,4.8,3.1,7.6,3.9L250,35c-2.9-0.9-5.7-2.6-8.3-5c-3.5,2.7-6.8,4.3-10,5.1l-1.9-3c3.2-0.7,6.4-2.2,9.6-4.3
				c-1.8-1.8-3.4-4.1-5.1-7.1l2.8-1.1c1.6,2.7,3.1,4.9,4.7,6.4c2.3-1.8,3.9-4.1,4.9-6.9h-13.2v-3.1h6.6v-4.4h-7.3V13.6z"/>
			<path class="st0" d="M282.9,15.6c0.5,2.7,1.8,5.6,3.6,8.6s4.4,5.6,7.9,7.8l-2.6,3.1c-6-3.9-10.1-10.4-12.3-19.3H279
				c-1.4,8.1-6,14.5-13.4,19.4L263,32c3.2-1.8,5.9-4.1,8.2-7.1c2.3-2.9,3.6-6,4.1-9.1h-11.5v-3.5h12.1c0.3-2.1,0.4-4.9,0.4-8.4h3.5
				c0,3.8-0.1,6.6-0.3,8.4h14.2v3.5L282.9,15.6z"/>
			<path class="st0" d="M330.6,21.8v2.5c-2,1-4.3,2-7.2,2.9h13.9v2.7h-13.9v1.3c0,2.4-1,3.6-3,3.6h-4.9l-0.7-2.7l4.6,0.1
				c0.6,0,1-0.3,1-1v-1.3h-14.5v-2.7h14.5v-1.4c1.6-0.3,3.5-0.7,5.8-1.4h-14.1v-2.5C312.1,21.8,330.6,21.8,330.6,21.8z M333.5,20.5
				h-24.1v4.9h-3v-7.6h1.7L307.7,5c2.9-0.1,5.4-0.4,7.3-0.9l1.4,2.5c-1.2,0.4-3.2,0.7-5.9,0.9l0.1,1.7h5.2v2.3h-5.1v1.9h5.1v2.3h-5
				l0.1,2.3h20.9v-2.3h-4.7v-2.3h4.8l0.1-1.9h-4.9V9.1h4.9V7.2h-5.2V4.7h8.3l-0.4,13.1h1.8v7.6h-3L333.5,20.5L333.5,20.5z
				 M321.9,8.4c-1.1,0.7-2.4,1.3-3.9,2.1l-1.7-2.3c1.9-0.5,3.1-0.9,3.7-1.3c-0.5-0.4-1.3-0.9-2.3-1.6l1.8-1.6
				c0.8,0.5,1.8,1.1,2.6,1.9c0.9-0.6,1.7-1.2,2.1-1.8l1.7,1.6c-0.5,0.6-1.1,1.2-2,1.8c0.4,0.4,1,1,1.8,1.8l-2.1,1.6
				C322.8,9,322.2,8.4,321.9,8.4z M322.1,15.2c-1,0.7-2.3,1.3-3.9,1.9l-1.4-2.3c1.6-0.3,2.7-0.7,3.5-1.2c-0.4-0.3-1.2-0.8-2.3-1.6
				l1.8-1.4c0.4,0.3,0.8,0.5,1.1,0.7c0.4,0.3,0.9,0.6,1.4,1c0.6-0.4,1.4-1.1,2.3-2.1l1.8,1.6c-0.8,0.8-1.6,1.4-2.3,2
				c0.6,0.5,1.2,1.1,1.9,1.8l-2.2,1.7C323,15.9,322.3,15.2,322.1,15.2z"/>
		</g>
		<g>
			<path class="st0" d="M101.8,72.7h-3.1V51h-5.8v-2.8h14.7V51h-5.8V72.7z"/>
			<path class="st0" d="M124.9,58v-9.9h3.1v24.5h-3.1V60.9h-11.7v11.8h-3.1V48.1h3.1V58H124.9z"/>
			<path class="st0" d="M132.7,48.1h13.1v2.8h-10.1v6.8h9.8v2.8h-9.8v9.3h10.1v2.8h-13.1V48.1z"/>
			<path class="st0" d="M174.2,58v-9.9h3.1v24.5h-3.1V60.9h-11.7v11.8h-3.1V48.1h3.1V58H174.2z"/>
			<path class="st0" d="M206,60.4c0,7.2-5.8,12.8-12.8,12.8s-12.8-5.5-12.8-12.8c0-7,5.8-12.8,12.8-12.8S206,53.4,206,60.4z
				 M202.9,60.4c0-5.4-4-9.9-9.8-9.9c-5.8,0-9.8,4.6-9.8,9.9c0,5.6,4.4,9.9,9.8,9.9C198.4,70.3,202.9,66,202.9,60.4z"/>
			<path class="st0" d="M209,47l18.4,19.3V48.1h3.1v25.6l-18.4-19.2v18.3H209V47z"/>
			<path class="st0" d="M257.5,60.3v0.9c0,6.7-4.8,11.9-11.6,11.9c-6.8,0-12.4-5.9-12.4-12.7c0-7,5.7-12.8,12.7-12.8
				c3.8,0,7.6,1.8,10,4.8l-2.2,2.1c-1.8-2.4-4.8-4-7.8-4c-5.5,0-9.8,4.4-9.8,9.9c0,5.2,4.2,10,9.5,10c3.8,0,7.9-3.3,8.1-7.2h-6.3
				v-2.8C247.8,60.3,257.5,60.3,257.5,60.3z"/>
			<path class="st0" d="M284.1,48.1h4L277,59.2l11.3,13.6h-4.1L275,61.3l-1.2,1.1v10.2h-3.1V48.1h3.1v10.7L284.1,48.1z"/>
			<path class="st0" d="M314.4,60.4c0,7.2-5.8,12.8-12.8,12.8c-7.1,0-12.8-5.5-12.8-12.8c0-7,5.8-12.8,12.8-12.8
				C308.6,47.6,314.4,53.4,314.4,60.4z M311.4,60.4c0-5.4-4-9.9-9.8-9.9s-9.8,4.6-9.8,9.9c0,5.6,4.4,9.9,9.8,9.9
				C306.8,70.3,311.4,66,311.4,60.4z"/>
			<path class="st0" d="M317.4,47l18.4,19.3V48.1h3.1v25.6l-18.4-19.3v18.3h-3.1V47z"/>
			<path class="st0" d="M365.9,60.3v0.9c0,6.7-4.8,11.9-11.6,11.9c-6.8,0-12.4-5.9-12.4-12.7c0-7,5.7-12.8,12.7-12.8
				c3.8,0,7.6,1.8,10,4.8l-2.2,2.1c-1.8-2.4-4.8-4-7.8-4c-5.5,0-9.8,4.4-9.8,9.9c0,5.2,4.2,10,9.5,10c3.8,0,7.9-3.3,8.1-7.2h-6.3
				v-2.8C356.2,60.3,365.9,60.3,365.9,60.3z"/>
			<path class="st0" d="M381.6,48.1v14.5c0,4,1.2,7.8,5.9,7.8c4.8,0,5.9-3.7,5.9-7.8V48.1h3.1v15.5c0,5.4-3.3,9.5-9,9.5
				c-5.6,0-9-4.1-9-9.5V48.1H381.6z"/>
			<path class="st0" d="M400.9,47l18.4,19.3V48.1h3.1v25.6L404,54.3v18.3h-3.1V47z"/>
			<path class="st0" d="M429.9,72.7h-3.1V48.1h3.1V72.7z"/>
			<path class="st0" d="M443,66.3l7.2-18.2h3.3L442.9,74l-10.7-25.9h3.3L443,66.3z"/>
			<path class="st0" d="M456,48.1h13.1v2.8H459v6.8h9.8v2.8H459v9.3h10.1v2.8H456V48.1z"/>
			<path class="st0" d="M488.6,72.7h-3.7l-7.2-10.3h-1.2v10.3h-3.1V48.1h3.7c2.2,0,4.6,0,6.5,1.1c2.1,1.2,3.2,3.5,3.2,5.9
				c0,3.5-2.4,6.4-5.9,6.8L488.6,72.7z M476.4,59.8h0.9c3.1,0,6.5-0.6,6.5-4.4s-3.6-4.3-6.7-4.3h-0.8v8.8H476.4z"/>
			<path class="st0" d="M502.2,52.8c-0.9-1.6-2.1-2.3-3.9-2.3c-2,0-4.1,1.3-4.1,3.5c0,2,1.9,2.9,3.4,3.5l1.8,0.7
				c3.5,1.3,6.1,3.3,6.1,7.3c0,4.4-3.4,7.7-7.9,7.7c-3.9,0-7-2.9-7.6-6.8l3.1-0.6c0,2.7,2.1,4.7,4.8,4.7c2.6,0,4.6-2.2,4.6-4.8
				c0-2.6-2.1-3.7-4.2-4.7l-1.7-0.7c-2.8-1.2-5.4-2.8-5.4-6.2c0-3.9,3.5-6.3,7.2-6.3c2.7,0,5,1.3,6.3,3.7L502.2,52.8z"/>
			<path class="st0" d="M512.1,72.7H509V48.1h3.1V72.7z"/>
			<path class="st0" d="M523.6,72.7h-3.1V51h-5.8v-2.8h14.7V51h-5.8V72.7z"/>
			<path class="st0" d="M529.6,48.1h3.5l6,10.4l6-10.4h3.5l-8,14v10.7h-3.1V62.1L529.6,48.1z"/>
			<path class="st0" d="M584.8,60.4c0,7.2-5.8,12.8-12.8,12.8c-7.1,0-12.8-5.5-12.8-12.8c0-7,5.8-12.8,12.8-12.8
				C579,47.6,584.8,53.4,584.8,60.4z M581.8,60.4c0-5.4-4-9.9-9.8-9.9c-5.8,0-9.8,4.6-9.8,9.9c0,5.6,4.4,9.9,9.8,9.9
				C577.2,70.3,581.8,66,581.8,60.4z"/>
			<path class="st0" d="M591.1,51v6.9h8.5v2.8h-8.5v12H588V48.1h12v2.8h-8.9V51z"/>
			<path class="st0" d="M106.1,91.9c-0.9-1.6-2.1-2.3-3.9-2.3c-2,0-4.1,1.3-4.1,3.5c0,2,1.9,2.9,3.4,3.5l1.8,0.7
				c3.5,1.3,6.1,3.3,6.1,7.3c0,4.4-3.4,7.7-7.9,7.7c-3.9,0-7-2.9-7.6-6.8l3.1-0.6c0,2.7,2.1,4.7,4.8,4.7c2.6,0,4.6-2.2,4.6-4.8
				s-2.1-3.7-4.2-4.7l-1.7-0.7c-2.8-1.2-5.4-2.8-5.4-6.2c0-3.9,3.5-6.3,7.2-6.3c2.7,0,5,1.3,6.3,3.7L106.1,91.9z"/>
			<path class="st0" d="M130.9,91.9c-1.8-1.6-4.1-2.4-6.5-2.4c-5.5,0-9.7,4.6-9.7,10c0,5.4,4.1,9.9,9.6,9.9c2.4,0,4.8-0.9,6.5-2.6
				v3.6c-1.9,1.1-4.3,1.8-6.4,1.8c-7,0-12.8-5.6-12.8-12.6c0-7.2,5.8-12.9,13-12.9c2.2,0,4.3,0.5,6.2,1.7v3.5H130.9z"/>
			<path class="st0" d="M137.8,111.7h-3.1V87.2h3.1V111.7z"/>
			<path class="st0" d="M142.8,87.2h13.1V90h-10.1v6.8h9.8v2.8h-9.8v9.3h10.1v2.8h-13.1V87.2z"/>
			<path class="st0" d="M159.7,86.1l18.4,19.3V87.2h3.1v25.6l-18.4-19.3v18.3h-3.1V86.1z"/>
			<path class="st0" d="M203.8,91.9c-1.8-1.6-4.1-2.4-6.5-2.4c-5.5,0-9.7,4.6-9.7,10c0,5.4,4.1,9.9,9.6,9.9c2.4,0,4.8-0.9,6.5-2.6
				v3.6c-1.9,1.1-4.3,1.8-6.4,1.8c-7,0-12.8-5.6-12.8-12.6c0-7.2,5.8-12.9,13-12.9c2.2,0,4.3,0.5,6.2,1.7v3.5H203.8z"/>
			<path class="st0" d="M207.7,87.2h13.1V90h-10.1v6.8h9.8v2.8h-9.8v9.3h10.1v2.8h-13.1V87.2z"/>
			<path class="st0" d="M238.2,105.6l-2.8,6.1h-3.3l11.7-25.6l11.7,25.6h-3.3l-2.8-6.1H238.2z M243.8,92.9l-4.3,9.9h8.7L243.8,92.9z
				"/>
			<path class="st0" d="M257.7,86.1l18.4,19.3V87.2h3.1v25.6l-18.5-19.3v18.3h-3.1V86.1H257.7z"/>
			<path class="st0" d="M283.6,87.2h5.1c7.6,0,13.8,3.9,13.8,12.1c0,8.4-6.1,12.4-13.9,12.4h-5V87.2z M286.7,108.9h1
				c6.2,0,11.7-2.4,11.7-9.5c0-7.1-5.4-9.5-11.7-9.5h-1V108.9z"/>
			<path class="st0" d="M322.1,111.7H319V90h-5.8v-2.8h14.7V90h-5.8V111.7z"/>
			<path class="st0" d="M330.7,87.2h13.1V90h-10.1v6.8h9.8v2.8h-9.8v9.3h10.1v2.8h-13.1V87.2z"/>
			<path class="st0" d="M365.8,91.9c-1.8-1.6-4.1-2.4-6.5-2.4c-5.5,0-9.7,4.6-9.7,10c0,5.4,4.1,9.9,9.6,9.9c2.4,0,4.8-0.9,6.5-2.6
				v3.6c-1.9,1.1-4.3,1.8-6.4,1.8c-7,0-12.8-5.6-12.8-12.6c0-7.2,5.8-12.9,13-12.9c2.2,0,4.3,0.5,6.2,1.7v3.5H365.8z"/>
			<path class="st0" d="M384.3,97.1v-9.9h3.1v24.5h-3.1V99.9h-11.7v11.8h-3.1V87.2h3.1v9.9H384.3z"/>
			<path class="st0" d="M391.8,86.1l18.4,19.3V87.2h3.1v25.6l-18.4-19.3v18.3h-3.1V86.1z"/>
			<path class="st0" d="M441.9,99.5c0,7.2-5.8,12.8-12.8,12.8c-7.1,0-12.8-5.5-12.8-12.8c0-7,5.8-12.8,12.8-12.8
				C436.1,86.7,441.9,92.5,441.9,99.5z M438.9,99.5c0-5.4-4-9.9-9.8-9.9c-5.8,0-9.8,4.6-9.8,9.9c0,5.6,4.4,9.9,9.8,9.9
				C434.4,109.3,438.9,105.1,438.9,99.5z"/>
			<path class="st0" d="M448.3,108.9h7.4v2.8h-10.6V87.2h3.1V108.9z"/>
			<path class="st0" d="M482.1,99.5c0,7.2-5.8,12.8-12.8,12.8c-7.1,0-12.8-5.5-12.8-12.8c0-7,5.8-12.8,12.8-12.8
				C476.3,86.7,482.1,92.5,482.1,99.5z M479.1,99.5c0-5.4-4-9.9-9.8-9.9c-5.8,0-9.8,4.6-9.8,9.9c0,5.6,4.4,9.9,9.8,9.9
				C474.5,109.3,479.1,105.1,479.1,99.5z"/>
			<path class="st0" d="M507.7,99.4v0.9c0,6.7-4.8,11.9-11.6,11.9c-6.8,0-12.4-5.9-12.4-12.7c0-7,5.7-12.8,12.7-12.8
				c3.8,0,7.6,1.8,10,4.8l-2.2,2.1c-1.8-2.4-4.8-4-7.8-4c-5.5,0-9.8,4.4-9.8,9.9c0,5.2,4.2,10,9.5,10c3.8,0,7.9-3.3,8.1-7.2H498
				v-2.8C498,99.4,507.7,99.4,507.7,99.4z"/>
			<path class="st0" d="M508.6,87.2h3.5l6,10.4l6-10.4h3.5l-8,13.9v10.7h-3.1v-10.7L508.6,87.2z"/>
		</g>
	</g>
	<g>
		<g>
			<path class="st1" d="M56.3,112.4L43.1,90.6c0,0-0.4-0.5-0.4-1.3v-0.5v-1.1v-39h-5v40.7v1.2c0.4,0.4,8.7,14.5,8.7,14.5H26
				c0,0,8.3-14.1,8.7-14.5v-1.2V48.6h-5v39v1.1v0.5c0,0.8-0.4,1.3-0.4,1.3l-13.1,21.9h40.1V112.4z"/>
		</g>
		<g>
			<path class="st1" d="M52.2,20.2c0,0,2.5-10.2-6.3-17c0,0-3.5-3.2-10.2-3.2c-6,0-9.5,3.2-9.5,3.2c-8.2,5.7-6,17-6,17H52.2z"/>
			<path class="st1" d="M21.1,23h30.2c0.2-0.6,0.4-1.1,0.6-1.8H20.5C20.7,21.8,20.9,22.4,21.1,23z"/>
			<path class="st1" d="M50.8,24.1H21.6c0.3,0.6,0.6,1.2,1,1.8h27.2C50.2,25.2,50.6,24.7,50.8,24.1z"/>
			<path class="st1" d="M24.6,28.3h23.3c0.4-0.4,0.8-0.9,1.2-1.4H23.4C23.7,27.4,24.1,27.8,24.6,28.3z"/>
			<path class="st1" d="M27.1,30.4h18.2c0.5-0.3,0.9-0.7,1.3-1h-21C26.2,29.8,26.6,30.1,27.1,30.4z"/>
			<path class="st1" d="M29.6,31.9c2.1,0.9,4.2,1.4,6.6,1.4c2.4,0,4.6-0.5,6.6-1.4H29.6z"/>
		</g>
		<path class="st0" d="M67.6,34H42.8c0,0-2.3,0-4.1,1.2c-1.4,0.9-2.4,3.2-2.5,3.3l0,0c0-0.1-1-2.4-2.5-3.3C31.9,34,29.6,34,29.6,34
			H4.9L0,42h22.7c0,0,0.6,0,1,0.1c0.6,0.1,1.9,0.5,3.1,1.3c1.7,1.2,2.2,1.9,2.6,2.3c0.1,0.1,0.6,0.8,0.6,0.8h5.6h0.6l0,0h2h4.2
			c0,0,0.5-0.7,0.7-0.9c0.4-0.4,0.9-1,2.6-2.3c1.2-0.9,2.4-1.2,3.1-1.3c0.4-0.1,1-0.1,1-0.1h22.7L67.6,34z"/>
		<g>
			<g>
				<path class="st0" d="M2.5,44.4v37.1c0,0,0,0.4,0,0.5c0,0.4,0,0.8,0.1,1.1c0.4,3.9,1.7,6.9,3.9,10.8c3.6,6.1,10.2,10.2,10.2,10.2
					l3.1-5c0,0-4.2-2.3-7.6-7.3c-0.7-1-1.3-2-1.9-3c-0.4-0.9-0.7-1.7-1-2.4c-0.2-0.5-0.3-1-0.4-1.6c-0.2-0.7-0.2-1.2-0.3-1.9
					c0-0.2,0-1.1,0-1.1v-0.2V44.4H2.5z"/>
				<path class="st0" d="M11.9,44.4v37.4c0,0,0,0.1,0,0.3c0,0.2,0,0.4,0.1,0.6c0,0.1,0,0.3,0.1,0.4c0.1,0.6,0.2,1.1,0.5,1.9
					c0.4,1.2,1.1,2.8,2.3,4.6c2.8,4.4,6.8,6.5,6.8,6.5l3.1-4.9c0,0-1-0.5-2.3-1.8c-0.8-0.8-1.9-1.9-2.7-3.1
					c-0.8-1.2-1.3-2.6-1.7-3.5C18,82,17.9,81.4,17.9,81c0-0.3,0-0.5,0-0.5V44.4H11.9z"/>
			</g>
			<g>
				<path class="st0" d="M70,44.4v37.1c0,0,0,0.4,0,0.5c0,0.4,0,0.8-0.1,1.1c-0.4,3.9-1.7,6.9-3.9,10.8
					c-3.6,6.1-10.2,10.2-10.2,10.2l-3.1-5c0,0,4.2-2.3,7.6-7.3c0.7-1,1.3-2,1.9-3c0.4-0.9,0.7-1.7,1-2.4c0.2-0.5,0.3-1,0.4-1.6
					c0.2-0.7,0.2-1.2,0.3-1.9c0-0.2,0-1.1,0-1.1v-0.2V44.4H70z"/>
				<path class="st0" d="M60.6,44.4v37.4c0,0,0,0.1,0,0.3c0,0.2,0,0.4-0.1,0.6c0,0.1,0,0.3-0.1,0.4c-0.1,0.6-0.2,1.1-0.5,1.9
					c-0.4,1.2-1.1,2.8-2.3,4.6c-2.8,4.4-6.8,6.5-6.8,6.5l-3.1-4.9c0,0,1-0.5,2.3-1.8c0.8-0.8,1.9-1.9,2.7-3.1s1.3-2.6,1.7-3.5
					c0.2-0.8,0.3-1.4,0.3-1.9c0-0.3,0-0.5,0-0.5V44.4H60.6z"/>
			</g>
		</g>
	</g>
</g>
</svg>
